Coordinates
version=1
nRows=8
nColumns=33
inDegrees=yes

Units are S.I. units (second, meters, Newtons, ...)
Angles are in degrees.

endheader
time	ground_thorax_rot_x	ground_thorax_rot_y	ground_thorax_rot_z	ground_thorax_tx	ground_thorax_ty	ground_thorax_tz	clav_prot_r	clav_elev_r	scapula_abduction_r	scapula_elevation_r	scapula_upward_rot_r	scapula_winging_r	shoulder_elv_r	plane_of_elev_r	axial_rot_r	elbow_flexion_r	pro_sup_r	wrist_flex_r	wrist_dev_r	clav_prot_l	clav_elev_l	scapula_abduction_l	scapula_elevation_l	scapula_upward_rot_l	scapula_winging_l	shoulder_elv_l	plane_of_elev_l	axial_rot_l	elbow_flexion_l	pro_sup_l	wrist_flex_l	wrist_dev_l
      9.26000000	     39.70430282	     10.45805169	     12.21862022	   -246.95909810	    852.34596990	      6.85646787	     12.20894539	     38.10794609	     36.94849739	     45.00000000	    -37.39373575	   2069.03275131	  -2271.32839353	    146.50152945	   -129.64249704	   2176.30113735	     60.09581171	     15.56369166	      1.50026778	      8.24125761	    -45.00000000	    -35.75716674	     45.00000000	    -45.00000000	  -3498.57032143	    797.33243912	     19.87802067	    -61.15016063	    381.21915422	    123.03652602	     -1.64745105	    -10.93152155
      9.27000000	     39.61397330	     10.49930316	     12.32374897	   -246.90677758	    852.03631542	      6.86178762	     12.36670130	     37.88292407	     36.80061451	     45.00000000	    -37.85320733	   2069.25112582	  -2271.07512631	    146.38386729	   -130.32737266	   2176.31670889	     59.80437958	     15.77748852	      1.50196200	      8.10538314	    -45.00000000	    -35.77896655	     45.00000000	    -45.00000000	  -3498.29260975	    797.20130621	     20.13412172	    -61.39886162	    381.23341071	    122.71553820	     -1.77126326	    -11.32818053
      9.28000000	     39.63569792	     10.51115412	     12.35055080	   -246.77888290	    851.71857120	      6.86494004	     12.33562204	     37.87886015	     36.88336088	     45.00000000	    -38.21074167	   2069.28999639	  -2271.08789255	    146.30975263	   -130.60014487	   2176.26940096	     59.43580304	     15.84148265	      1.57417114	      8.17538798	    -45.00000000	    -35.71944991	     45.00000000	    -45.00000000	  -3498.45860155	    797.25779398	     19.95329060	    -61.19740531	    381.19349438	    122.41645329	     -1.61865789	    -11.04353807
      9.29000000	     39.58293478	     10.50486535	     12.42618298	   -246.58396865	    851.39775525	      6.86516336	     12.42106318	     37.79976392	     36.80457963	     45.00000000	    -38.22396113	   2069.37714406	  -2271.04051384	    146.32628784	   -130.79607853	   2176.21513967	     59.00180755	     15.96802074	      1.57802096	      8.13464644	    -45.00000000	    -35.78962684	     45.00000000	    -45.00000000	  -3498.33860395	    797.14582423	     20.07033636	    -61.22784849	    381.18147708	    122.15632931	     -1.72363944	    -11.29897066
      9.30000000	     39.56211153	     10.56587389	     12.46368174	   -246.33290439	    851.08699091	      6.86261296	     12.36151935	     37.84083650	     36.88300758	     45.00000000	    -38.35246974	   2069.38472672	  -2271.09870143	    146.29950817	   -130.89374584	   2176.15750529	     58.45369476	     16.04817879	      1.63551457	      8.15467247	    -45.00000000	    -35.70638139	     45.00000000	    -45.00000000	  -3498.47678209	    797.16753821	     19.96805840	    -61.00145497	    381.12892717	    121.89812861	     -1.59044064	    -11.09556239
      9.31000000	     39.51749225	     10.64130834	     12.49677734	   -246.03618175	    850.79149767	      6.85748525	     12.45265413	     37.78450076	     36.80563210	     45.00000000	    -38.25048198	   2069.42851640	  -2271.12155819	    146.32579436	   -131.05279106	   2176.08089345	     57.82643949	     16.15670382	      1.63651903	      8.13861865	    -45.00000000	    -35.72121360	     45.00000000	    -45.00000000	  -3498.42552126	    797.08886391	     20.09756184	    -60.98638590	    381.07550486	    121.67130338	     -1.67797840	    -11.29666320
      9.32000000	     39.45151501	     10.75990778	     12.54521408	   -245.70243283	    850.51416672	      6.85068564	     12.34709243	     37.88480583	     36.93351466	     45.00000000	    -38.44719467	   2069.46470403	  -2271.13437939	    146.45786227	   -131.06795604	   2176.04068598	     57.17317121	     16.30670626	      1.71631530	      8.14668739	    -45.00000000	    -35.67638086	     45.00000000	    -45.00000000	  -3498.57802523	    797.17314403	     20.07359132	    -60.70486205	    380.99782882	    121.48062952	     -1.50835546	    -11.07159661
      9.33000000	     39.45269593	     10.67765413	     12.39899895	   -245.33823893	    850.25498683	      6.84252880	     12.49804919	     37.76071759	     36.74200431	     45.00000000	    -38.09956743	   2069.38126931	  -2271.21904862	    146.23895181	   -131.32958000	   2175.95020097	     56.32252974	     16.33560379	      1.66963771	      8.14306037	    -45.00000000	    -35.70328514	     45.00000000	    -45.00000000	  -3498.55888115	    797.06646207	     20.24814300	    -60.78174783	    381.06322679	    121.26067582	     -1.69289907	    -11.33311957
